<svg width="175" height="97" viewBox="0 0 175 97" fill="none" xmlns="http://www.w3.org/2000/svg">
<path d="M119.789 87.4969C119.408 86.9105 118.866 86.4626 118.163 86.1508C117.471 85.839 116.647 85.6831 115.689 85.6831H110.755V95.9302H114.209V93.4111H115.686C116.644 93.4111 117.468 93.2552 118.161 92.9434C118.864 92.6217 119.406 92.1713 119.787 91.5973C120.168 91.0207 120.358 90.3377 120.358 89.5483C120.358 88.759 120.168 88.0735 119.787 87.4994L119.789 87.4969ZM116.525 90.4243C116.3 90.6396 115.949 90.746 115.471 90.746H114.212V88.3457H115.471C115.949 88.3457 116.3 88.4521 116.525 88.6674C116.76 88.8827 116.877 89.1747 116.877 89.5459C116.877 89.917 116.76 90.209 116.525 90.4243Z" fill="white"/>
<path d="M97.4319 91.2162C97.4319 91.9981 97.2909 92.5524 97.0088 92.8865C96.7341 93.2082 96.3555 93.369 95.868 93.369C95.3805 93.369 95.0093 93.2082 94.7272 92.8865C94.4451 92.5549 94.3016 91.9981 94.3016 91.2162V85.6831H90.8472V91.3201C90.8472 92.8518 91.2851 94.0421 92.1636 94.8909C93.0421 95.7396 94.267 96.1653 95.8383 96.1653C97.4096 96.1653 98.6345 95.7396 99.513 94.8909C100.391 94.0421 100.829 92.8518 100.829 91.3201V85.6831H97.4319V91.2162Z" fill="white"/>
<path d="M79.6944 86.9699C79.1773 86.4824 78.5685 86.1063 77.8658 85.8415C77.163 85.5792 76.3909 85.4456 75.552 85.4456C74.7132 85.4456 73.951 85.5767 73.2384 85.8415C72.5356 86.1063 71.9244 86.4799 71.4097 86.9699C70.8925 87.4475 70.4867 88.0141 70.1947 88.6674C69.9126 89.3108 69.769 90.0235 69.769 90.8054C69.769 91.5874 69.9101 92.2877 70.1947 92.9434C70.4867 93.5967 70.8925 94.1683 71.4097 94.6558C71.9268 95.1334 72.5356 95.5046 73.2384 95.7694C73.951 96.0317 74.7206 96.1653 75.552 96.1653C76.3835 96.1653 77.163 96.0341 77.8658 95.7694C78.5685 95.507 79.1797 95.1359 79.6944 94.6558C80.2116 94.1683 80.6125 93.5967 80.8946 92.9434C81.1866 92.2901 81.3326 91.5775 81.3326 90.8054C81.3326 90.0333 81.1866 89.3133 80.8946 88.6674C80.6125 88.0141 80.2116 87.4475 79.6944 86.9699ZM77.6752 91.8893C77.5589 92.201 77.3931 92.4708 77.1778 92.6935C76.9724 92.9088 76.7299 93.0746 76.4454 93.1909C76.1732 93.3072 75.8737 93.3666 75.552 93.3666C75.2304 93.3666 74.926 93.3072 74.6439 93.1909C74.3692 93.0746 74.1267 92.9088 73.9114 92.6935C73.7061 92.4683 73.5452 92.201 73.4289 91.8893C73.3126 91.5676 73.2532 91.2063 73.2532 90.8054C73.2532 90.4045 73.3126 90.0482 73.4289 89.7364C73.5452 89.4147 73.7061 89.145 73.9114 88.9322C74.1267 88.707 74.3692 88.5363 74.6439 88.42C74.926 88.3037 75.2304 88.2443 75.552 88.2443C75.8737 88.2443 76.1707 88.3037 76.4454 88.42C76.7275 88.5363 76.9724 88.707 77.1778 88.9322C77.3931 89.1475 77.5589 89.4147 77.6752 89.7364C77.7915 90.0482 77.8509 90.4045 77.8509 90.8054C77.8509 91.2063 77.7915 91.5676 77.6752 91.8893Z" fill="white"/>
<path d="M59.9603 91.5972C60.3414 91.0206 60.532 90.3377 60.532 89.5483C60.532 88.7589 60.3414 88.0735 59.9603 87.4994C59.5793 86.9129 59.0373 86.465 58.3346 86.1532C57.6417 85.8414 56.8177 85.6855 55.86 85.6855H50.9258V95.9326H54.3802V93.3566H55.3206L57.0577 95.9326H60.7472L58.5894 92.7726C59.1635 92.4806 59.6238 92.0921 59.9554 91.5997L59.9603 91.5972ZM56.6964 88.6674C56.9315 88.8827 57.0478 89.1746 57.0478 89.5458C57.0478 89.917 56.9315 90.209 56.6964 90.4243C56.4712 90.6396 56.1198 90.746 55.6423 90.746H54.3827V88.3457H55.6423C56.1198 88.3457 56.4712 88.4521 56.6964 88.6674Z" fill="white"/>
<path d="M35.0818 88.9322C35.2971 88.707 35.5544 88.5363 35.8588 88.42C36.1706 88.3037 36.517 88.2443 36.8981 88.2443C37.3559 88.2443 37.7716 88.3408 38.1428 88.5363C38.5239 88.7218 38.8753 88.999 39.1969 89.3702L41.4067 87.4227C40.8895 86.7892 40.2313 86.3017 39.4296 85.9578C38.6402 85.6163 37.737 85.4456 36.7224 85.4456C35.8736 85.4456 35.0917 85.5767 34.3815 85.8415C33.6787 86.0964 33.0675 86.4626 32.5503 86.9402C32.0332 87.4178 31.6323 87.9844 31.3502 88.6377C31.0681 89.291 30.9246 90.0136 30.9246 90.8054C30.9246 91.5973 31.0656 92.3174 31.3502 92.9706C31.6323 93.6239 32.0282 94.1906 32.5355 94.6682C33.0527 95.1458 33.6589 95.5169 34.3493 95.7817C35.0521 96.0366 35.8192 96.1628 36.6482 96.1628C37.4004 96.1628 38.175 96.0514 38.9767 95.8263C39.776 95.6011 40.4887 95.2794 41.1147 94.8612V90.5283H38.1131V93.129C38.0735 93.1463 38.0339 93.1637 37.9968 93.1785C37.6256 93.3047 37.2445 93.369 36.856 93.369C36.4675 93.369 36.1483 93.3096 35.8464 93.1933C35.5544 93.0671 35.2995 92.8914 35.0843 92.6663C34.869 92.4411 34.7032 92.1738 34.5869 91.862C34.4706 91.5403 34.4112 91.189 34.4112 90.8079C34.4112 90.407 34.4706 90.0507 34.5869 89.7389C34.7032 89.4271 34.869 89.1574 35.0843 88.9347L35.0818 88.9322Z" fill="white"/>
<path d="M159.706 52.7939C158.402 53.6377 156.84 52.1654 157.605 50.8143L166.642 34.8436C167.149 33.9478 168.394 33.8266 169.062 34.6085L174.642 41.1215C175.228 41.8045 175.075 42.8463 174.32 43.3362L159.703 52.7939H159.706Z" fill="white"/>
<path d="M144.199 74.4265C143.506 76.1191 140.96 75.3049 141.378 73.5257L155.362 13.7086C155.647 12.4961 157.206 12.1497 157.975 13.1271L164.896 21.9216C165.228 22.3423 165.307 22.909 165.104 23.4039L144.199 74.4265Z" fill="url(#paint0_linear_463_667)"/>
<path d="M140.186 59.0595C139.886 60.7842 137.37 60.663 137.241 58.916L133.044 2.43207C132.965 1.35812 134.019 0.558848 135.031 0.92508L148.183 5.696C148.862 5.94098 149.265 6.63632 149.141 7.34652L140.186 59.062V59.0595Z" fill="white"/>
<path d="M128.669 33.8984C128.79 35.4054 125.836 35.6529 124.965 34.4181L115.903 16.2351C115.517 15.6883 115.544 14.9508 115.97 14.4337L124.965 3.52342C125.814 2.49401 127.484 3.01861 127.593 4.34991L128.669 33.9009V33.8984Z" fill="url(#paint1_linear_463_667)"/>
<path d="M135.427 73.2904L116.608 30.2408C116.276 29.4836 115.529 28.9937 114.703 28.9937H101.778C100.952 28.9937 100.204 29.4836 99.8726 30.2408L82.6424 69.6578L77.1934 61.6724C79.8461 60.3213 81.9396 58.5125 83.4664 56.2408C85.2209 53.5881 86.0969 50.4405 86.0969 46.798C86.0969 43.1555 85.2209 40.0078 83.4664 37.3551C81.712 34.6579 79.2176 32.5892 75.9809 31.1515C72.7888 29.7137 68.9903 28.9937 64.5832 28.9937H51.9086C51.1786 28.9937 50.5253 29.4514 50.2779 30.1394L47.1129 38.9487C46.7071 40.0771 47.5435 41.2674 48.7436 41.2674H63.5711C65.7734 41.2674 67.3918 41.7623 68.4261 42.7521C69.505 43.7419 70.0445 45.0905 70.0445 46.798C70.0445 48.5054 69.505 49.8565 68.4261 50.8438C67.3918 51.8337 65.7734 52.3286 63.5711 52.3286H59.5029C58.5453 52.3286 57.7708 53.1056 57.7708 54.0608V62.7662C57.7708 63.7461 58.5824 64.5305 59.5599 64.4984L62.1581 64.4118L69.5966 75.4383C69.9183 75.9159 70.4578 76.203 71.0343 76.203H94.5375C95.3986 76.203 96.1707 75.6734 96.4776 74.8692L108.105 44.6179L119.733 74.8692C120.043 75.6734 120.815 76.203 121.673 76.203H133.521C135.021 76.203 136.028 74.6638 135.427 73.2904Z" fill="white"/>
<path d="M25.6362 77.1161C21.9541 77.1161 18.5368 76.5469 15.3818 75.4062C12.2713 74.2233 9.5542 72.558 7.23061 70.4101C4.95156 68.2622 3.17731 65.7208 1.9054 62.7835C0.633486 59.8463 0 56.6046 0 53.0536C0 49.5027 0.63596 46.261 1.9054 43.3238C3.17731 40.3865 4.95156 37.8451 7.23061 35.6972C9.5542 33.5493 12.2713 31.9062 15.3818 30.7655C18.5368 29.5826 21.9566 28.9912 25.6362 28.9912H37.9372C40.4414 28.9912 41.8915 28.9912 43.9602 29.105C45.1183 29.1694 45.8632 30.3473 45.4499 31.4311L42.0103 40.4335C41.7529 41.1041 41.1096 41.547 40.3919 41.547H26.4281C24.8073 41.547 23.3374 41.8093 22.0234 42.3364C20.7094 42.861 19.5687 43.6281 18.6061 44.6377C17.6855 45.6449 16.963 46.8722 16.4359 48.3199C15.9113 49.7229 15.6465 51.2992 15.6465 53.0536C15.6465 54.8081 15.9088 56.4066 16.4359 57.8518C16.963 59.2548 17.6855 60.4599 18.6061 61.4671C19.5711 62.4742 20.7094 63.2413 22.0234 63.7684C23.3374 64.293 24.8073 64.5578 26.4281 64.5578C28.4869 64.5578 30.328 64.0975 31.9513 63.177C33.1391 62.4891 34.2477 61.6131 35.2795 60.5466C35.9724 59.8314 37.1132 59.725 37.8555 60.3882L45.0762 66.8319C45.7567 67.4382 45.8557 68.4725 45.247 69.1505C43.1486 71.4939 40.5998 73.3597 37.6056 74.7455C34.1437 76.3242 30.1548 77.1111 25.6412 77.1111L25.6362 77.1161Z" fill="white"/>
<defs>
<linearGradient id="paint0_linear_463_667" x1="130.391" y1="63.7612" x2="169.244" y2="24.1636" gradientUnits="userSpaceOnUse">
<stop stop-color="#A2352E"/>
<stop offset="0.44" stop-color="#DA6734"/>
<stop offset="0.76" stop-color="#FEC139"/>
</linearGradient>
<linearGradient id="paint1_linear_463_667" x1="118.328" y1="28.6994" x2="134.655" y2="9.92259" gradientUnits="userSpaceOnUse">
<stop stop-color="#A2352E"/>
<stop offset="0.44" stop-color="#DA6734"/>
<stop offset="0.76" stop-color="#FEC139"/>
</linearGradient>
</defs>
</svg>
