<svg width="146" height="81" viewBox="0 0 146 81" fill="none" xmlns="http://www.w3.org/2000/svg">
<path d="M88.9985 79.9507V71.7168H92.9626C93.7311 71.7168 94.3937 71.8423 94.9505 72.0932C95.5151 72.3441 95.9503 72.7049 96.2562 73.1754C96.562 73.6381 96.7149 74.187 96.7149 74.8222C96.7149 75.4574 96.562 76.0063 96.2562 76.469C95.9503 76.9316 95.5151 77.2924 94.9505 77.5511C94.3937 77.8021 93.7311 77.9275 92.9626 77.9275H90.5395L91.7746 76.7395V79.9507H88.9985ZM91.7746 77.0453L90.5395 75.7867H92.7861C93.1704 75.7867 93.4527 75.7005 93.6331 75.5279C93.8213 75.3554 93.9154 75.1202 93.9154 74.8222C93.9154 74.5242 93.8213 74.2889 93.6331 74.1164C93.4527 73.9439 93.1704 73.8576 92.7861 73.8576H90.5395L91.7746 72.599V77.0453Z" fill="#001D6C"/>
<path d="M77.0101 80.1389C75.7476 80.1389 74.7634 79.7978 74.0577 79.1156C73.3519 78.4333 72.999 77.4766 72.999 76.2455V71.7168H75.775V76.1631C75.775 76.7905 75.8887 77.2375 76.1162 77.5041C76.3436 77.7629 76.6494 77.8923 77.0337 77.8923C77.4258 77.8923 77.7316 77.7629 77.9512 77.5041C78.1786 77.2375 78.2923 76.7905 78.2923 76.1631V71.7168H81.0212V76.2455C81.0212 77.4766 80.6684 78.4333 79.9626 79.1156C79.2568 79.7978 78.2727 80.1389 77.0101 80.1389Z" fill="#001D6C"/>
<path d="M60.711 80.139C60.0444 80.139 59.4249 80.0332 58.8525 79.8214C58.2879 79.6097 57.7977 79.3117 57.3821 78.9275C56.9665 78.5354 56.6411 78.0766 56.4058 77.5512C56.1784 77.0258 56.0647 76.4534 56.0647 75.8339C56.0647 75.2065 56.1784 74.6341 56.4058 74.1165C56.6411 73.5911 56.9665 73.1363 57.3821 72.752C57.7977 72.3599 58.2879 72.058 58.8525 71.8463C59.4249 71.6346 60.0444 71.5287 60.711 71.5287C61.3854 71.5287 62.0049 71.6346 62.5695 71.8463C63.1341 72.058 63.6242 72.3599 64.0399 72.752C64.4555 73.1363 64.777 73.5911 65.0044 74.1165C65.2397 74.6341 65.3573 75.2065 65.3573 75.8339C65.3573 76.4534 65.2397 77.0258 65.0044 77.5512C64.777 78.0766 64.4555 78.5354 64.0399 78.9275C63.6242 79.3117 63.1341 79.6097 62.5695 79.8214C62.0049 80.0332 61.3854 80.139 60.711 80.139ZM60.711 77.8924C60.9698 77.8924 61.209 77.8453 61.4285 77.7512C61.6559 77.6571 61.852 77.5238 62.0167 77.3513C62.1892 77.1709 62.3225 76.9552 62.4166 76.7043C62.5107 76.4455 62.5578 76.1554 62.5578 75.8339C62.5578 75.5123 62.5107 75.2261 62.4166 74.9752C62.3225 74.7164 62.1892 74.5007 62.0167 74.3282C61.852 74.1479 61.6559 74.0106 61.4285 73.9165C61.209 73.8224 60.9698 73.7754 60.711 73.7754C60.4522 73.7754 60.2091 73.8224 59.9817 73.9165C59.7621 74.0106 59.5661 74.1479 59.3936 74.3282C59.2289 74.5007 59.0995 74.7164 59.0054 74.9752C58.9113 75.2261 58.8642 75.5123 58.8642 75.8339C58.8642 76.1554 58.9113 76.4455 59.0054 76.7043C59.0995 76.9552 59.2289 77.1709 59.3936 77.3513C59.5661 77.5238 59.7621 77.6571 59.9817 77.7512C60.2091 77.8453 60.4522 77.8924 60.711 77.8924Z" fill="#001D6C"/>
<path d="M40.9248 79.9507V71.7168H44.8889C45.6574 71.7168 46.32 71.8423 46.8768 72.0932C47.4414 72.3441 47.8766 72.7049 48.1824 73.1754C48.4883 73.6381 48.6412 74.187 48.6412 74.8222C48.6412 75.4574 48.4883 76.0063 48.1824 76.469C47.8766 76.9238 47.4414 77.2728 46.8768 77.5158C46.32 77.7589 45.6574 77.8805 44.8889 77.8805H42.4657L43.7008 76.7395V79.9507H40.9248ZM45.8534 79.9507L43.8302 76.9512H46.7709L48.8176 79.9507H45.8534ZM43.7008 77.0453L42.4657 75.7867H44.7124C45.0967 75.7867 45.379 75.7005 45.5593 75.5279C45.7475 75.3554 45.8416 75.1202 45.8416 74.8222C45.8416 74.5242 45.7475 74.2889 45.5593 74.1164C45.379 73.9439 45.0967 73.8576 44.7124 73.8576H42.4657L43.7008 72.599V77.0453Z" fill="#001D6C"/>
<path d="M29.4493 80.139C28.7828 80.139 28.1672 80.0371 27.6026 79.8332C27.0458 79.6215 26.5596 79.3235 26.144 78.9392C25.7362 78.555 25.4186 78.1002 25.1912 77.5748C24.9638 77.0494 24.8501 76.4691 24.8501 75.8339C24.8501 75.1987 24.9638 74.6184 25.1912 74.093C25.4186 73.5676 25.7401 73.1127 26.1558 72.7285C26.5714 72.3442 27.0615 72.0502 27.6261 71.8463C28.1986 71.6346 28.8259 71.5287 29.5082 71.5287C30.3237 71.5287 31.0491 71.6659 31.6843 71.9404C32.3273 72.2148 32.8566 72.6069 33.2723 73.1167L31.4961 74.6811C31.2373 74.3831 30.955 74.1596 30.6491 74.0106C30.3512 73.8538 30.0179 73.7754 29.6493 73.7754C29.3435 73.7754 29.0651 73.8224 28.8142 73.9165C28.5711 74.0106 28.3632 74.1479 28.1907 74.3282C28.0182 74.5086 27.8849 74.7242 27.7908 74.9752C27.6967 75.2261 27.6496 75.5123 27.6496 75.8339C27.6496 76.1397 27.6967 76.422 27.7908 76.6808C27.8849 76.9317 28.0182 77.1474 28.1907 77.3277C28.3632 77.5081 28.5671 77.6493 28.8024 77.7512C29.0455 77.8453 29.316 77.8924 29.614 77.8924C29.9277 77.8924 30.2335 77.8414 30.5315 77.7394C30.8295 77.6296 31.1471 77.4454 31.4843 77.1866L33.037 79.0922C32.5351 79.4294 31.9627 79.6881 31.3196 79.8685C30.6766 80.0489 30.0532 80.139 29.4493 80.139ZM30.6256 78.7393V75.6104H33.037V79.0922L30.6256 78.7393Z" fill="#001D6C"/>
<path d="M128.33 45.2917C127.282 45.9696 126.028 44.7877 126.642 43.7015L133.903 30.8691C134.311 30.1487 135.31 30.0517 135.849 30.6802L140.333 35.9139C140.804 36.4627 140.682 37.3003 140.075 37.6929L128.33 45.2917Z" fill="#001D6C"/>
<path d="M115.869 62.6721C115.312 64.0321 113.268 63.3789 113.602 61.9478L124.839 13.8842C125.067 12.9096 126.32 12.6312 126.939 13.4176L132.501 20.4848C132.767 20.8228 132.831 21.2777 132.667 21.6757L115.869 62.6721Z" fill="url(#paint0_linear_138_714)"/>
<path d="M112.644 50.3244C112.404 51.7111 110.381 51.6126 110.277 50.2092L106.905 4.82289C106.841 3.95939 107.689 3.31698 108.503 3.61222L119.07 7.44503C119.614 7.64227 119.938 8.20098 119.839 8.77094L112.644 50.3244Z" fill="#001D6C"/>
<path d="M103.39 30.1074C103.487 31.3185 101.114 31.5175 100.414 30.5244L93.1325 15.9131C92.8227 15.4735 92.8451 14.8811 93.1872 14.4661L100.414 5.69928C101.096 4.87157 102.439 5.29381 102.525 6.36305L103.39 30.1074Z" fill="url(#paint1_linear_138_714)"/>
<path d="M68.7639 64.1033C66.7858 64.1033 65.4577 62.022 66.2501 60.1637L80.0903 27.7026C80.527 26.6783 81.5138 26.0164 82.6042 26.0164H91.3261C92.4165 26.0164 93.4033 26.6783 93.84 27.7026L107.68 60.1637C108.473 62.022 107.145 64.1033 105.166 64.1033H98.2961C97.1606 64.1033 96.1425 63.3862 95.7351 62.2996L85.2937 34.4465C84.8715 33.3204 85.6823 32.1103 86.859 32.1103C88.0357 32.1103 88.8465 33.3204 88.4244 34.4465L77.9829 62.2996C77.5756 63.3862 76.5574 64.1033 75.422 64.1033H68.7639Z" fill="#001D6C"/>
<path d="M40.3828 35.919C38.7946 35.919 37.6869 34.3094 38.224 32.7821L40.0578 27.5677C40.3851 26.637 41.2487 26.0164 42.2165 26.0164H51.5716C55.0502 26.0164 58.0496 26.5967 60.5699 27.7575C63.1256 28.9182 65.0956 30.5868 66.48 32.7632C67.8643 34.9033 68.5565 37.4424 68.5565 40.3806C68.5565 43.3187 67.8643 45.8578 66.48 47.998C65.0956 50.1018 63.1256 51.716 60.5699 52.8405C58.0496 53.9649 55.0502 54.5272 51.5716 54.5272L48.5631 54.6281C47.2674 54.6716 46.194 53.6101 46.194 52.2853V35.919H40.3828ZM57.1573 64.1033C56.3947 64.1033 55.682 63.7161 55.2556 63.07L49.1921 53.8837C48.1645 52.3268 49.2561 50.2288 51.0938 50.2288H58.8789C59.6371 50.2288 60.3463 50.6117 60.7737 51.2517L68.0457 62.1424C68.6016 62.9748 68.0182 64.1033 67.032 64.1033H57.1573ZM46.194 50.6641V47.1863C46.194 45.8917 47.221 44.8422 48.4878 44.8422H50.7729C52.5123 44.8422 53.7901 44.4432 54.6065 43.6452C55.4584 42.8472 55.8844 41.759 55.8844 40.3806C55.8844 39.0022 55.4584 37.914 54.6065 37.116C53.7901 36.318 52.5123 35.919 50.7729 35.919H40.6033H46.194V50.6641Z" fill="#001D6C"/>
<path d="M20.8651 65.3729C17.8691 65.3729 15.0871 64.9069 12.5191 63.975C9.98674 63.0072 7.77539 61.6451 5.88504 59.8888C4.03036 58.1324 2.58585 56.0535 1.55151 53.6519C0.51717 51.2504 0 48.598 0 45.6946C0 42.7913 0.51717 40.1388 1.55151 37.7373C2.58585 35.3358 4.03036 33.2568 5.88504 31.5005C7.77539 29.7441 9.98674 28.4 12.5191 27.468C15.0871 26.5002 17.8691 26.0164 20.8651 26.0164C24.5388 26.0164 27.1361 26.0164 30.8761 26.0164C32.4007 26.0164 33.4449 26.0164 34.5791 26.0555C36.12 26.1086 37.1113 27.6906 36.5608 29.1379L34.4089 34.7962C34.0678 35.6932 33.2115 36.2856 32.256 36.2856C31.3436 36.2856 30.2616 36.2856 29.1089 36.2856C26.3552 36.2856 23.1835 36.2856 21.5072 36.2856C20.1875 36.2856 18.9926 36.5007 17.9226 36.9308C16.8526 37.3609 15.9253 37.9882 15.1406 38.8126C14.3916 39.637 13.8031 40.6406 13.3751 41.8235C12.9471 42.9705 12.7331 44.2609 12.7331 45.6946C12.7331 47.1284 12.9471 48.4367 13.3751 49.6195C13.8031 50.7665 14.3916 51.7522 15.1406 52.5766C15.9253 53.401 16.8526 54.0283 17.9226 54.4584C18.9926 54.8886 20.1875 55.1036 21.5072 55.1036C23.1835 55.1036 24.6815 54.7273 26.0012 53.9745C26.7111 53.5615 27.3868 53.0649 28.0282 52.4847C29.0128 51.594 30.5251 51.4415 31.5134 52.3281L36.059 56.4057C36.9629 57.2165 37.0986 58.6048 36.2502 59.4741C34.6569 61.1067 32.7742 62.4278 30.6022 63.4373C27.7845 64.7277 24.5388 65.3729 20.8651 65.3729Z" fill="#001D6C"/>
<defs>
<linearGradient id="paint0_linear_138_714" x1="104.774" y1="54.1026" x2="135.992" y2="22.285" gradientUnits="userSpaceOnUse">
<stop stop-color="#A2352E"/>
<stop offset="0.44" stop-color="#DA6734"/>
<stop offset="0.755" stop-color="#FEC139"/>
</linearGradient>
<linearGradient id="paint1_linear_138_714" x1="95.0812" y1="25.9306" x2="108.201" y2="10.8436" gradientUnits="userSpaceOnUse">
<stop stop-color="#A2352E"/>
<stop offset="0.44" stop-color="#DA6734"/>
<stop offset="0.755" stop-color="#FEC139"/>
</linearGradient>
</defs>
</svg>
